<?xml version="1.0" encoding="utf-8"?>
<!-- Generator: Adobe Illustrator 24.1.1, SVG Export Plug-In . SVG Version: 6.00 Build 0)  -->
<svg version="1.1"
	 id="svg566635" xmlns:cc="http://creativecommons.org/ns#" xmlns:dc="http://purl.org/dc/elements/1.1/" xmlns:rdf="http://www.w3.org/1999/02/22-rdf-syntax-ns#" xmlns:svg="http://www.w3.org/2000/svg"
	 xmlns="http://www.w3.org/2000/svg" xmlns:xlink="http://www.w3.org/1999/xlink" x="0px" y="0px" viewBox="0 0 818.1 63.9"
	 style="enable-background:new 0 0 818.1 63.9;" xml:space="preserve">
<style type="text/css">
	.st0{fill:#CC9930;}
</style>
<g id="logo-group">
	<g id="logo-center" transform="translate(184.91063386524934 0)">
		
			<image style="overflow:visible;enable-background:new    ;" width="200" height="200" id="icon" xlink:href="B3980D42.png"  transform="matrix(0.3317 0 0 0.3317 -324.4424 0)">
		</image>
		<g id="title">
			<path id="path566643" class="st0" d="M-95.5,2.4h-4.4l-18.9,55.4l-19.1-55.4h-4.3l-19.2,55.3l-18.7-55.3h-4.7l20.9,61.5h4.7
				l19.1-55.2l19.1,55.2h4.7L-95.5,2.4z"/>
			<path id="path566645" class="st0" d="M-26.5,2.4H-31v28.3h-41.1V2.4h-4.5v61.5h4.5V34.7H-31v29.2h4.5L-26.5,2.4z"/>
			<path id="path566647" class="st0" d="M1.1,2.4v61.5h4.5V2.4H1.1z"/>
			<path id="path566649" class="st0" d="M36.3,62.1c4,1.6,8.3,2.3,12.9,2.3c4.8,0,9-0.7,12.3-2.2c3.3-1.4,5.8-3.4,7.4-5.9
				s2.5-5.2,2.5-8.2c0-3.6-1-6.5-2.9-8.6c-1.9-2.1-4.2-3.8-6.9-4.8c-2.7-1.1-6.3-2.1-10.8-3.2c-4-1-7.3-1.9-9.6-2.8
				c-2.4-0.9-4.3-2.1-5.9-3.8C33.8,23.2,33,21,33,18.2c0-3.6,1.4-6.6,4.4-8.9c2.9-2.3,7.2-3.4,12.9-3.4c2.8,0,5.7,0.4,8.7,1.3
				c3,0.9,5.7,2.2,8.2,3.9l1.7-3.6c-2.5-1.7-5.3-3-8.5-4C57,2.5,53.6,2,50.3,2c-4.9,0-9,0.8-12.2,2.2c-3.2,1.5-5.6,3.5-7.2,6
				s-2.4,5.2-2.4,8.2c0,3.7,0.9,6.7,2.8,8.9c1.9,2.2,4.2,3.8,6.9,4.8c2.7,1.1,6.3,2.2,10.9,3.2c4,1,7.1,1.8,9.5,2.7
				c2.3,0.9,4.3,2.2,5.9,3.8c1.6,1.7,2.4,3.9,2.4,6.6c0,3.6-1.5,6.5-4.5,8.7c-3,2.3-7.5,3.3-13.3,3.3c-4,0-7.9-0.7-11.6-2.1
				c-3.7-1.4-6.6-3.3-8.7-5.6l-2,3.3C29.1,58.5,32.3,60.5,36.3,62.1z"/>
			<path id="path566651" class="st0" d="M132.9,8c-4.4-3.7-10.5-5.5-18.2-5.5h-22v4h22c6.5,0,11.5,1.5,15,4.4
				c3.4,2.9,5.2,7,5.2,12.3c0,5.4-1.8,9.5-5.2,12.3c-3.5,2.9-8.5,4.3-15,4.3h-22v24.2h4.5V43.8h17.6c7.7,0,13.8-1.8,18.2-5.4
				c4.4-3.7,6.6-8.7,6.6-15.2C139.5,16.7,137.3,11.7,132.9,8z"/>
			<path id="path566653" class="st0" d="M200.5,30.7h-39.8v4h39.8V30.7z M200.5,2.4h-39.8v4h39.8V2.4z M160.7,59.9v4h39.8v-4H160.7z
				"/>
			<path id="path566655" class="st0" d="M258.1,42.4c4.6-1.3,8.2-3.6,10.6-6.9s3.8-7.4,3.8-12.3c0-6.4-2.2-11.5-6.6-15.2
				c-4.4-3.7-10.5-5.5-18.2-5.5h-22v4h22c6.5,0,11.5,1.5,15,4.4c3.4,2.9,5.2,7,5.2,12.3c0,5.4-1.8,9.5-5.2,12.4
				c-3.5,2.9-8.5,4.3-15,4.3h-22v24.1h4.5V43.8h17.6c1.8,0,3.8-0.1,6-0.4l14.7,20.6h5.1L258.1,42.4z"/>
			<path id="path566657" class="st0" d="M377.3,2.4h-4.4L354,57.9L334.8,2.4h-4.3l-19.2,55.3L292.6,2.4h-4.7l20.9,61.5h4.7
				l19.1-55.2l19.1,55.2h4.7L377.3,2.4z"/>
			<path id="path566659" class="st0" d="M416.9,2.4h-4.5l-28.3,61.5h4.8l25.6-56.6l25.7,56.6h4.8L416.9,2.4z"/>
			<path id="path566661" class="st0" d="M471.2,6.5v57.4h4.5V6.5h22.1v-4H449v4H471.2z"/>
			<path id="path566663" class="st0" d="M523.7,60.3c4.8,2.7,10.3,4,16.3,4c4.4,0,8.4-0.7,12.2-2.2c3.8-1.4,7-3.6,9.7-6.4l-2.8-2.9
				c-5,4.9-11.3,7.4-18.9,7.4c-5.2,0-9.8-1.1-14.1-3.5c-4.2-2.3-7.6-5.5-9.9-9.7c-2.5-4.1-3.6-8.8-3.6-13.9s1.1-9.7,3.6-13.8
				c2.4-4.1,5.7-7.4,9.9-9.7c4.2-2.3,8.9-3.5,14.1-3.5c7.6,0,14,2.5,18.9,7.3l2.8-2.9c-2.6-2.8-5.9-4.9-9.6-6.3
				C548.6,2.8,544.4,2,540,2c-6.1,0-11.5,1.4-16.3,4c-4.8,2.7-8.6,6.4-11.4,11.2c-2.8,4.7-4.1,10.1-4.1,16c0,6,1.3,11.2,4.1,16
				C515.1,53.9,518.9,57.7,523.7,60.3L523.7,60.3z"/>
			<path id="path566665" class="st0" d="M633.2,2.4h-4.5v28.3h-41.1V2.4h-4.5v61.5h4.5V34.7h41.1v29.2h4.5V2.4z"/>
		</g>
		<g id="tagline">
		</g>
	</g>
</g>
</svg>
